<svg xmlns="http://www.w3.org/2000/svg" xmlns:xlink="http://www.w3.org/1999/xlink" version="1.1" width="256" height="256" viewBox="0 0 256 256" xml:space="preserve">

<defs>
</defs>
<g style="stroke: none; stroke-width: 0; stroke-dasharray: none; stroke-linecap: butt; stroke-linejoin: miter; stroke-miterlimit: 10; fill: none; fill-rule: nonzero; opacity: 1;" transform="translate(1.4065934065934016 1.4065934065934016) scale(2.81 2.81)" >
	<path d="M 43.612 48.448 c 0 -0.279 -0.117 -0.559 -0.346 -0.756 c -0.417 -0.361 -1.049 -0.316 -1.41 0.102 l -20.05 23.162 L 1.756 47.794 c -0.361 -0.418 -0.993 -0.463 -1.41 -0.102 c -0.418 0.361 -0.463 0.995 -0.102 1.41 L 21.05 73.139 c 0.19 0.22 0.466 0.346 0.756 0.346 s 0.566 -0.126 0.756 -0.346 l 20.806 -24.036 C 43.532 48.914 43.612 48.681 43.612 48.448 z" style="stroke: none; stroke-width: 1; stroke-dasharray: none; stroke-linecap: butt; stroke-linejoin: miter; stroke-miterlimit: 10; fill: rgb(0,0,0); fill-rule: nonzero; opacity: 1;" transform=" matrix(1 0 0 1 0 0) " stroke-linecap="round" />
	<path d="M 90 51.112 c 0 -19.077 -15.52 -34.597 -34.597 -34.597 s -34.597 15.52 -34.597 34.597 v 21.372 c 0 0.553 0.448 1 1 1 s 1 -0.447 1 -1 V 51.112 c 0 -17.974 14.623 -32.597 32.597 -32.597 C 73.377 18.516 88 33.139 88 51.112 c 0 0.553 0.447 1 1 1 S 90 51.665 90 51.112 z" style="stroke: none; stroke-width: 1; stroke-dasharray: none; stroke-linecap: butt; stroke-linejoin: miter; stroke-miterlimit: 10; fill: rgb(0,0,0); fill-rule: nonzero; opacity: 1;" transform=" matrix(1 0 0 1 0 0) " stroke-linecap="round" />
</g>
</svg>